<svg id="Layer_1" data-name="Layer 1" xmlns="http://www.w3.org/2000/svg" viewBox="0 0 455.74 112.74"><defs><style>.cls-1{fill:#003a78;}.cls-2{fill:#fd0;}</style></defs><title>hogia_logo_cmyk</title><path class="cls-1" d="M230.41,290.72c-20.13-37.58-58.14-56.42-58.14-56.42H85.44s-48.6,52-2,112.74h92s38-21.31,54.71-55.46l0.32-.86" transform="translate(-63.22 -234.3)"/><path class="cls-2" d="M87.69,241.15h83.4s36.62,20.34,52.14,49.57c0,0-23.55,37.58-51.07,50h-85s-38.86-43.36,0-99l0.54-.54" transform="translate(-63.22 -234.3)"/><path class="cls-1" d="M87.16,250H119v26.87H141V250h31.58v81.26s-31.58.22-31.58,0V301.53H119v29.76H87.16V250" transform="translate(-63.22 -234.3)"/><path class="cls-1" d="M244.9,257.58h27v22.9h18.7V257.72h26.82V326s-26.82.15-26.82,0V301.36h-18.7V326h-27V257.58" transform="translate(-63.22 -234.3)"/><path class="cls-1" d="M318.9,299.22c0-15.1,13-27.52,30.09-27.52s30.46,12.42,30.46,27.52S366.12,326.74,349,326.74,318.9,314.32,318.9,299.22Zm29.9-8.55c-4.42.18-6.93,4.37-7,8.32s0.93,8.92,7.16,9.06,7.62-4.46,7.81-9.06-2.93-8.32-7.81-8.32h-0.37" transform="translate(-63.22 -234.3)"/><path class="cls-1" d="M413.67,274.31l2.6-2h21.56v49.07s-0.93,18.59-24.17,19.89c-3.34.19-6.38,0.71-9.1,0.54s-5.11-.38-7.26-0.65c-10.73-1.35-14.86-4.17-14.86-4.17l5.39-13s9.57,3.25,13.66,3.16,13-1,12.92-4.55c0,0-.19-1.86-2.79-0.93s-23.79,6.41-30.85-17.75c0,0-5.57-28.44,21.38-32.25C402.15,271.62,409.39,271.62,413.67,274.31Zm-10.87,23c0,3.44,1.86,7.34,7.06,7.25s5.11-2.51,5.21-8-1.11-6.41-5-6.79-7.25,2.32-7.25,7.16v0.37" transform="translate(-63.22 -234.3)"/><rect class="cls-1" x="378.7" y="38.34" width="23.23" height="53.34"/><path class="cls-1" d="M453.63,269.74a11.76,11.76,0,0,0,11.26-11.41c0-6.1-5.45-11-11.26-11a11.1,11.1,0,0,0-10.88,11c0,6.1,5.08,11.41,10.88,11.41" transform="translate(-63.22 -234.3)"/><path class="cls-1" d="M517.1,286.67C518.69,290.49,519,326,519,326h-19.8l-3.44-2.32c-3.62,2.6-11.89,3-11.89,3a17,17,0,0,1-15.43-9.48c-8.27-24.26,24.91-24.44,24.91-24.44,3-.37,1.11-2.7,1.11-2.7-5.48-5.67-25.46,3.53-25.46,3.53s1.39-14.4,3.16-17.1,38.29-12.2,45.07,10.48m-23.42,26c3.53-.55,2.41-6.87,2.41-6.87,0-3-2-2.7-2-2.7s-5.23,1-5.44,5c0,0-.46,5.23,5.23,4.58l-0.16,0" transform="translate(-63.22 -234.3)"/></svg>